Hanif_Medium_7_5_grf.mot
version=1
nRows=21
nColumns=19
inDegrees=yes
endheader
time	right_ground_force_vx	right_ground_force_vy	right_ground_force_vz	right_ground_force_px	right_ground_force_py	right_ground_force_pz	right_ground_torque_x	right_ground_torque_y	right_ground_torque_z	left_ground_force_vx	left_ground_force_vy	left_ground_force_vz	left_ground_force_px	left_ground_force_py	left_ground_force_pz	left_ground_torque_x	left_ground_torque_y	left_ground_torque_z
3.425000	-4.226900	242.531000	58.763000	0.211937	0.000000	-1.424810	-19.717100	0.487267	3.266270	-4.896730	283.855000	-74.207300	0.198259	0.000000	-0.972718	19.854400	-3.530410	0.484127
3.430000	-3.379060	246.302000	59.509400	0.210395	0.000000	-1.424760	-20.031500	0.718930	2.949880	-4.494640	281.128000	-72.570800	0.197378	0.000000	-0.972720	19.659600	-3.590090	0.221497
3.435000	-2.803520	251.079000	60.478900	0.211402	0.000000	-1.425380	-20.261700	0.785120	3.272570	-3.747610	277.158000	-71.069100	0.197200	0.000000	-0.972503	19.313100	-3.615580	0.166751
3.440000	-2.680320	251.707000	61.170500	0.209943	0.000000	-1.425400	-20.308900	1.094500	2.968990	-3.231340	279.637000	-69.731000	0.197863	0.000000	-0.972770	19.554400	-3.726870	0.350698
3.445000	-2.129200	256.877000	62.683300	0.208850	0.000000	-1.425560	-20.680700	1.266110	2.759430	-2.782700	280.874000	-69.041200	0.198546	0.000000	-0.973817	19.928100	-3.675990	0.518838
3.450000	-1.675200	260.691000	63.869000	0.208577	0.000000	-1.426990	-20.611300	1.386990	2.742320	-4.068340	280.608000	-67.366400	0.198592	0.000000	-0.973961	19.969000	-3.723510	0.545406
3.455000	-0.533941	262.714000	65.288200	0.207376	0.000000	-1.426950	-20.772700	1.497140	2.440110	-4.478960	280.321000	-66.594300	0.199319	0.000000	-0.973593	19.850000	-3.571780	0.722055
3.460000	0.056560	267.738000	66.646300	0.206693	0.000000	-1.427940	-20.898700	1.733020	2.333290	-5.122400	278.101000	-64.783300	0.199539	0.000000	-0.973847	19.772300	-3.452860	0.753821
3.465000	0.478967	272.969000	67.891800	0.206260	0.000000	-1.428500	-21.151700	1.740580	2.238230	-5.789010	272.785000	-63.349700	0.198054	0.000000	-0.974429	19.563500	-3.417350	0.330144
3.470000	-0.062705	275.928000	68.311300	0.205893	0.000000	-1.428050	-21.509800	1.783810	2.168500	-6.322920	269.690000	-61.947500	0.198179	0.000000	-0.974064	19.251200	-3.328870	0.350724
3.475000	-1.355680	277.171000	68.164600	0.205556	0.000000	-1.428590	-21.467100	1.755160	2.090640	-5.991000	266.568000	-60.439700	0.197648	0.000000	-0.974080	19.030700	-3.406600	0.209757
3.480000	-1.952130	277.638000	67.276300	0.204593	0.000000	-1.428630	-21.496600	1.757450	1.812640	-5.936260	262.431000	-59.527800	0.195971	0.000000	-0.975077	18.997700	-3.464640	-0.228923
3.485000	-2.394490	277.269000	67.807500	0.204574	0.000000	-1.429020	-21.363400	1.821480	1.834730	-4.954000	262.849000	-58.354100	0.196705	0.000000	-0.973644	18.637400	-3.489190	-0.056432
3.490000	-2.159020	277.340000	67.770000	0.204811	0.000000	-1.429990	-21.099400	1.770760	1.886780	-6.312690	264.611000	-57.932200	0.196274	0.000000	-0.974423	18.987600	-3.466350	-0.175578
3.495000	-2.768740	275.361000	66.573100	0.203463	0.000000	-1.429080	-21.203600	1.899120	1.520090	-7.202650	261.673000	-57.247400	0.198251	0.000000	-0.975383	19.046300	-3.414550	0.381404
3.500000	-2.430780	276.899000	65.754100	0.202479	0.000000	-1.431050	-20.774700	1.946340	1.230690	-7.768580	260.159000	-56.285800	0.197692	0.000000	-0.975562	18.993200	-3.434190	0.236433
3.505000	-2.306060	278.707000	65.622500	0.201941	0.000000	-1.430970	-20.930500	2.124000	1.111720	-8.138210	260.274000	-56.016100	0.197763	0.000000	-0.975087	18.885600	-3.482570	0.266479
3.510000	-2.721240	280.938000	65.840700	0.202256	0.000000	-1.429950	-21.390100	2.135730	1.217580	-8.257780	258.373000	-55.405200	0.198826	0.000000	-0.975685	18.907400	-3.454510	0.552287
3.515000	-3.007020	284.541000	65.332600	0.202505	0.000000	-1.429270	-21.860500	2.245560	1.318850	-8.556310	255.277000	-54.872500	0.198757	0.000000	-0.975445	18.630700	-3.536460	0.561475
3.520000	-3.298600	285.733000	65.137400	0.202721	0.000000	-1.430910	-21.487000	2.383150	1.417650	-7.547260	255.338000	-54.433800	0.199217	0.000000	-0.976225	18.823500	-3.762660	0.710861
3.525000	-2.677920	289.071000	65.451700	0.202546	0.000000	-1.431290	-21.621400	2.440470	1.371560	-7.491380	258.357000	-54.180100	0.200321	0.000000	-0.975933	18.968900	-3.787340	0.995391
